<svg xmlns="http://www.w3.org/2000/svg" xmlns:xlink="http://www.w3.org/1999/xlink" width="200" zoomAndPan="magnify" viewBox="0 0 150 67.499998" height="90" preserveAspectRatio="xMidYMid meet" version="1.0"><defs><g/><clipPath id="id1"><path d="M 0.550781 0 L 149.449219 0 L 149.449219 67.003906 L 0.550781 67.003906 Z M 0.550781 0 " clip-rule="nonzero"/></clipPath></defs><g clip-path="url(#id1)"><path fill="#ffffff" d="M 0.550781 0 L 149.449219 0 L 149.449219 74.449219 L 0.550781 74.449219 Z M 0.550781 0 " fill-opacity="1" fill-rule="nonzero"/><path fill="#ffffff" d="M 0.550781 0 L 149.449219 0 L 149.449219 67.003906 L 0.550781 67.003906 Z M 0.550781 0 " fill-opacity="1" fill-rule="nonzero"/><path fill="#ffffff" d="M 0.550781 0 L 149.449219 0 L 149.449219 67.003906 L 0.550781 67.003906 Z M 0.550781 0 " fill-opacity="1" fill-rule="nonzero"/><path fill="#ffffff" d="M 0.550781 0 L 149.449219 0 L 149.449219 67.003906 L 0.550781 67.003906 Z M 0.550781 0 " fill-opacity="1" fill-rule="nonzero"/></g><g fill="#000000" fill-opacity="1"><g transform="translate(18.46464, 40.068527)"><g><path d="M 11.8125 0 L 2.515625 0 L 2.515625 -18.59375 L 4.640625 -18.59375 L 4.640625 -1.984375 L 11.8125 -1.984375 Z M 11.8125 0 "/></g></g></g><g fill="#000000" fill-opacity="1"><g transform="translate(31.213449, 40.068527)"><g><path d="M 4.78125 0 L 2.65625 0 L 2.65625 -18.59375 L 4.78125 -18.59375 Z M 4.78125 0 "/></g></g></g><g fill="#000000" fill-opacity="1"><g transform="translate(38.650254, 40.068527)"><g><path d="M 16.390625 -3.9375 L 16.390625 -18.59375 L 18.453125 -18.59375 L 18.453125 0 L 17.125 0 L 4.59375 -14.65625 L 4.59375 0 L 2.515625 0 L 2.515625 -18.59375 L 3.84375 -18.59375 Z M 16.390625 -3.9375 "/></g></g></g><g fill="#000000" fill-opacity="1"><g transform="translate(59.632667, 40.068527)"><g><path d="M 6.90625 -9.59375 L 15.671875 0 L 12.859375 0 L 4.640625 -9 L 4.640625 0 L 2.515625 0 L 2.515625 -18.59375 L 4.640625 -18.59375 L 4.640625 -9.953125 L 12.453125 -18.59375 L 15.0625 -18.59375 Z M 6.90625 -9.59375 "/></g></g></g><g fill="#000000" fill-opacity="1"><g transform="translate(75.435873, 40.068527)"><g><path d="M 11.046875 0.265625 C 9.296875 0.265625 7.6875 -0.15625 6.21875 -1 C 4.75 -1.851562 3.585938 -3.015625 2.734375 -4.484375 C 1.878906 -5.953125 1.453125 -7.554688 1.453125 -9.296875 C 1.453125 -11.035156 1.878906 -12.640625 2.734375 -14.109375 C 3.585938 -15.578125 4.75 -16.734375 6.21875 -17.578125 C 7.6875 -18.429688 9.296875 -18.859375 11.046875 -18.859375 C 12.796875 -18.859375 14.40625 -18.429688 15.875 -17.578125 C 17.351562 -16.734375 18.515625 -15.578125 19.359375 -14.109375 C 20.210938 -12.640625 20.640625 -11.035156 20.640625 -9.296875 C 20.640625 -7.554688 20.210938 -5.953125 19.359375 -4.484375 C 18.515625 -3.015625 17.351562 -1.851562 15.875 -1 C 14.40625 -0.15625 12.796875 0.265625 11.046875 0.265625 Z M 11.046875 -1.71875 C 12.390625 -1.71875 13.625 -2.054688 14.75 -2.734375 C 15.875 -3.410156 16.769531 -4.320312 17.4375 -5.46875 C 18.101562 -6.625 18.4375 -7.898438 18.4375 -9.296875 C 18.4375 -10.691406 18.101562 -11.960938 17.4375 -13.109375 C 16.769531 -14.265625 15.875 -15.175781 14.75 -15.84375 C 13.625 -16.519531 12.390625 -16.859375 11.046875 -16.859375 C 9.703125 -16.859375 8.46875 -16.519531 7.34375 -15.84375 C 6.21875 -15.175781 5.320312 -14.265625 4.65625 -13.109375 C 4 -11.960938 3.671875 -10.691406 3.671875 -9.296875 C 3.671875 -7.898438 4 -6.625 4.65625 -5.46875 C 5.320312 -4.320312 6.21875 -3.410156 7.34375 -2.734375 C 8.46875 -2.054688 9.703125 -1.71875 11.046875 -1.71875 Z M 11.046875 -1.71875 "/></g></g></g><g fill="#000000" fill-opacity="1"><g transform="translate(97.533808, 40.068527)"><g><path d="M 8.125 -4.09375 L 13.3125 -18.59375 L 15.53125 -18.59375 L 8.765625 0 L 7.4375 0 L 0.65625 -18.59375 L 2.953125 -18.59375 Z M 8.125 -4.09375 "/></g></g></g><g fill="#000000" fill-opacity="1"><g transform="translate(113.735422, 40.068527)"><g><path d="M 17.265625 0 L 14.984375 0 L 12.984375 -5.046875 L 4.75 -5.046875 L 2.765625 0 L 0.53125 0 L 8.09375 -18.59375 L 9.6875 -18.59375 Z M 12.1875 -7.03125 L 8.875 -15.4375 L 5.546875 -7.03125 Z M 12.1875 -7.03125 "/></g></g></g><path stroke-linecap="butt" transform="matrix(0.744485, 0, 0, 0.744485, 7.25184, 6.328125)" fill="none" stroke-linejoin="miter" d="M -0.00247146 0.000000606019 L 182.00248 0.000000606019 " stroke="#000000" stroke-width="1" stroke-opacity="1" stroke-miterlimit="4"/><g fill="#1c2120" fill-opacity="1"><g transform="translate(75.805284, 56.427475)"><g><path d="M 13.46875 -8.121094 C 13.410156 -8.484375 13.261719 -8.714844 13.019531 -8.796875 C 12.757812 -8.898438 12.425781 -8.773438 12.035156 -8.417969 C 11.945312 -8.324219 11.933594 -8.1875 12.011719 -8.097656 C 12.09375 -8.003906 12.230469 -8.003906 12.324219 -8.085938 C 12.699219 -8.417969 12.847656 -8.394531 12.882812 -8.382812 C 12.953125 -8.359375 13.011719 -8.234375 13.042969 -8.039062 C 13.351562 -6.195312 11.132812 0.503906 8.441406 2.644531 C 8.175781 2.863281 7.800781 3.09375 7.546875 2.964844 C 6.882812 2.632812 6.917969 0.242188 6.941406 -1.351562 C 6.964844 -3.160156 6.953125 -3.960938 6.515625 -4.078125 C 6.242188 -4.15625 5.964844 -3.90625 5.554688 -3.183594 C 4.007812 -0.421875 2.761719 1.648438 1.855469 2.988281 C 0.90625 4.398438 0.527344 4.707031 0.402344 4.765625 C 0.320312 4.476562 0.378906 2.792969 4.03125 -6.734375 C 4.914062 -9.023438 5.441406 -9.988281 5.679688 -10.285156 C 5.691406 -10.167969 5.691406 -9.988281 5.679688 -9.664062 C 5.667969 -9.550781 5.761719 -9.449219 5.875 -9.4375 C 6 -9.425781 6.105469 -9.515625 6.117188 -9.644531 C 6.160156 -10.285156 6.128906 -10.730469 5.804688 -10.800781 C 5.589844 -10.855469 5.175781 -10.949219 3.617188 -6.882812 C 2.792969 -4.730469 1.636719 -1.648438 0.859375 0.800781 C -0.34375 4.570312 -0.125 5.039062 0.195312 5.1875 C 0.25 5.210938 0.296875 5.234375 0.355469 5.234375 C 0.664062 5.234375 1.109375 4.84375 2.0625 3.46875 C 2.988281 2.128906 4.292969 -0.0351562 5.945312 -2.964844 C 6.183594 -3.402344 6.332031 -3.5625 6.402344 -3.617188 C 6.527344 -3.332031 6.503906 -2.199219 6.492188 -1.351562 C 6.460938 1.066406 6.503906 2.941406 7.351562 3.355469 C 7.71875 3.539062 8.175781 3.414062 8.714844 2.988281 C 11.566406 0.722656 13.8125 -6.148438 13.46875 -8.121094 Z M 13.46875 -8.121094 "/></g></g></g><g fill="#1c2120" fill-opacity="1"><g transform="translate(89.073368, 56.427475)"><g><path d="M 3.871094 -2.554688 C 3.769531 -2.621094 3.628906 -2.601562 3.5625 -2.496094 C 2.703125 -1.292969 2.003906 -0.539062 1.316406 -0.046875 C 0.972656 0.195312 0.640625 0.242188 0.421875 0.0820312 C 0.285156 -0.0234375 -0.136719 -0.480469 0.355469 -2.085938 C 1.464844 -3 2.074219 -3.871094 1.914062 -4.328125 C 1.855469 -4.464844 1.71875 -4.558594 1.570312 -4.558594 C 1.109375 -4.546875 0.414062 -3.757812 -0.046875 -2.277344 C -0.605469 -0.457031 -0.148438 0.207031 0.171875 0.433594 C 0.332031 0.5625 0.515625 0.617188 0.722656 0.617188 C 0.984375 0.617188 1.28125 0.515625 1.570312 0.308594 C 2.300781 -0.21875 3.023438 -0.996094 3.917969 -2.246094 C 3.984375 -2.347656 3.960938 -2.484375 3.871094 -2.554688 Z M 1.476562 -4.078125 C 1.429688 -3.894531 1.238281 -3.527344 0.699219 -2.976562 C 0.996094 -3.640625 1.316406 -3.960938 1.476562 -4.078125 Z M 1.476562 -4.078125 "/></g></g></g><g fill="#1c2120" fill-opacity="1"><g transform="translate(92.404699, 56.427475)"><g><path d="M 4.832031 -2.566406 C 4.730469 -2.621094 4.59375 -2.589844 4.523438 -2.484375 C 3.917969 -1.5 2.964844 -0.617188 1.820312 0.0585938 C 2.3125 -0.617188 2.554688 -1.386719 2.542969 -1.855469 C 2.53125 -2.289062 2.324219 -2.417969 2.199219 -2.449219 C 1.84375 -2.566406 1.375 -2.210938 0.777344 -1.363281 C 0.574219 -1.089844 0.367188 -0.722656 0.148438 -0.285156 C 0.492188 -1.855469 0.960938 -3.90625 1.316406 -5.441406 C 2.839844 -8.175781 3.617188 -10.238281 3.296875 -10.683594 C 3.230469 -10.789062 3.113281 -10.824219 3 -10.800781 C 2.507812 -10.707031 1.742188 -9.035156 1.226562 -6.917969 C 1.132812 -6.597656 1.03125 -6.128906 0.90625 -5.589844 C 0.894531 -5.566406 0.894531 -5.542969 0.882812 -5.519531 C 0.261719 -2.863281 -0.746094 1.625 -0.753906 2.003906 C -0.765625 2.117188 -0.6875 2.210938 -0.574219 2.234375 C -0.5625 2.234375 -0.550781 2.234375 -0.539062 2.234375 C -0.445312 2.234375 -0.355469 2.175781 -0.332031 2.074219 C -0.230469 1.773438 -0.125 1.476562 -0.0117188 1.179688 C 0.046875 1.257812 0.148438 1.304688 0.25 1.269531 C 1.429688 0.847656 3.609375 -0.160156 4.902344 -2.257812 C 4.957031 -2.359375 4.9375 -2.496094 4.832031 -2.566406 Z M 2.921875 -10.167969 C 2.828125 -9.710938 2.507812 -8.726562 1.742188 -7.179688 C 2.175781 -8.839844 2.644531 -9.78125 2.921875 -10.167969 Z M 0.113281 0.847656 C 0.445312 0.0585938 0.8125 -0.664062 1.132812 -1.109375 C 1.753906 -1.980469 2.027344 -2.027344 2.0625 -2.027344 C 2.085938 -2.003906 2.140625 -1.855469 2.074219 -1.511719 C 1.925781 -0.800781 1.292969 0.414062 0.113281 0.847656 Z M 0.113281 0.847656 "/></g></g></g><g fill="#1c2120" fill-opacity="1"><g transform="translate(96.709101, 56.427475)"><g/></g></g><g fill="#1c2120" fill-opacity="1"><g transform="translate(100.2236, 56.427475)"><g><path d="M 8.863281 -11.015625 C 7.855469 -11.636719 6.34375 -11.542969 4.84375 -10.832031 C 4.878906 -11.003906 4.914062 -11.175781 4.9375 -11.328125 C 4.957031 -11.441406 4.878906 -11.554688 4.765625 -11.578125 C 4.636719 -11.601562 4.523438 -11.519531 4.5 -11.394531 C 4.464844 -11.15625 4.410156 -10.878906 4.351562 -10.570312 C 4.113281 -10.445312 3.871094 -10.285156 3.640625 -10.125 C 1.796875 -8.796875 0.0585938 -6.34375 0.710938 -3.414062 C 0.734375 -3.296875 0.847656 -3.21875 0.972656 -3.253906 C 1.089844 -3.273438 1.167969 -3.390625 1.132812 -3.515625 C 0.527344 -6.230469 2.164062 -8.519531 3.894531 -9.757812 C 4.007812 -9.835938 4.121094 -9.917969 4.238281 -9.996094 C 4.019531 -8.886719 3.734375 -7.488281 3.425781 -5.957031 C 2.472656 -1.257812 1.902344 1.660156 1.59375 3.492188 C 1.488281 3.34375 1.421875 3.148438 1.398438 2.910156 C 1.375 2.78125 1.269531 2.703125 1.144531 2.714844 C 1.03125 2.726562 0.9375 2.839844 0.949219 2.953125 C 1.007812 3.445312 1.203125 3.800781 1.5 4.019531 C 1.121094 6.320312 1.25 6.515625 1.476562 6.585938 C 1.5 6.597656 1.535156 6.597656 1.558594 6.597656 C 1.773438 6.597656 1.925781 6.308594 2.164062 5.726562 C 2.210938 5.613281 2.164062 5.484375 2.050781 5.441406 C 1.933594 5.394531 1.808594 5.441406 1.761719 5.554688 C 1.742188 5.601562 1.730469 5.632812 1.71875 5.667969 C 1.753906 5.300781 1.820312 4.796875 1.914062 4.191406 C 2.003906 4.203125 2.097656 4.214844 2.199219 4.226562 C 2.210938 4.226562 2.222656 4.226562 2.222656 4.226562 C 3.402344 4.226562 5.140625 2.976562 6.664062 1.042969 C 8.476562 -1.238281 9.6875 -4.101562 10.113281 -6.984375 C 10.480469 -9.472656 9.632812 -10.546875 8.863281 -11.015625 Z M 9.675781 -7.054688 C 9.128906 -3.253906 7.339844 -0.515625 6.320312 0.777344 C 4.683594 2.851562 3.082031 3.777344 2.222656 3.777344 C 2.222656 3.777344 2.210938 3.777344 2.210938 3.777344 C 2.128906 3.777344 2.0625 3.769531 1.992188 3.757812 C 2.429688 1.179688 3.242188 -2.851562 3.859375 -5.863281 C 4.203125 -7.582031 4.523438 -9.128906 4.742188 -10.285156 C 6.195312 -11.0625 7.683594 -11.210938 8.636719 -10.640625 C 9.574219 -10.066406 9.941406 -8.828125 9.675781 -7.054688 Z M 9.675781 -7.054688 "/></g></g></g><g fill="#1c2120" fill-opacity="1"><g transform="translate(109.965743, 56.427475)"><g><path d="M 3.871094 -2.554688 C 3.769531 -2.621094 3.628906 -2.601562 3.5625 -2.496094 C 2.703125 -1.292969 2.003906 -0.539062 1.316406 -0.046875 C 0.972656 0.195312 0.640625 0.242188 0.421875 0.0820312 C 0.285156 -0.0234375 -0.136719 -0.480469 0.355469 -2.085938 C 1.464844 -3 2.074219 -3.871094 1.914062 -4.328125 C 1.855469 -4.464844 1.71875 -4.558594 1.570312 -4.558594 C 1.109375 -4.546875 0.414062 -3.757812 -0.046875 -2.277344 C -0.605469 -0.457031 -0.148438 0.207031 0.171875 0.433594 C 0.332031 0.5625 0.515625 0.617188 0.722656 0.617188 C 0.984375 0.617188 1.28125 0.515625 1.570312 0.308594 C 2.300781 -0.21875 3.023438 -0.996094 3.917969 -2.246094 C 3.984375 -2.347656 3.960938 -2.484375 3.871094 -2.554688 Z M 1.476562 -4.078125 C 1.429688 -3.894531 1.238281 -3.527344 0.699219 -2.976562 C 0.996094 -3.640625 1.316406 -3.960938 1.476562 -4.078125 Z M 1.476562 -4.078125 "/></g></g></g><g fill="#1c2120" fill-opacity="1"><g transform="translate(113.297073, 56.427475)"><g><path d="M 5.75 -2.496094 C 5.65625 -2.578125 5.519531 -2.566406 5.441406 -2.472656 C 4.96875 -1.925781 4.339844 -1.648438 3.824219 -1.785156 C 3.402344 -1.902344 3.09375 -2.3125 2.976562 -2.933594 C 2.953125 -3.035156 2.851562 -3.105469 2.75 -3.105469 C 2.644531 -3.105469 2.554688 -3.023438 2.542969 -2.921875 C 2.300781 -1.203125 0.9375 0.847656 0.285156 1.066406 C 0.207031 1.089844 0.183594 1.078125 0.183594 1.066406 C 0.125 1.019531 -0.261719 0.480469 0.949219 -3.125 C 0.984375 -3.242188 0.925781 -3.367188 0.8125 -3.402344 C 0.699219 -3.445312 0.574219 -3.378906 0.527344 -3.265625 C -0.800781 0.710938 -0.296875 1.214844 -0.136719 1.375 C -0.0703125 1.429688 0.046875 1.523438 0.21875 1.523438 C 0.273438 1.523438 0.34375 1.511719 0.421875 1.476562 C 0.847656 1.339844 1.421875 0.734375 1.933594 -0.125 C 2.324219 -0.765625 2.621094 -1.453125 2.804688 -2.097656 C 3.023438 -1.71875 3.332031 -1.464844 3.710938 -1.363281 C 4.386719 -1.191406 5.1875 -1.511719 5.773438 -2.1875 C 5.851562 -2.277344 5.839844 -2.417969 5.75 -2.496094 Z M 5.75 -2.496094 "/></g></g></g><g fill="#1c2120" fill-opacity="1"><g transform="translate(118.700471, 56.427475)"><g><path d="M 3.871094 -2.554688 C 3.769531 -2.621094 3.628906 -2.601562 3.5625 -2.496094 C 2.703125 -1.292969 2.003906 -0.539062 1.316406 -0.046875 C 0.972656 0.195312 0.640625 0.242188 0.421875 0.0820312 C 0.285156 -0.0234375 -0.136719 -0.480469 0.355469 -2.085938 C 1.464844 -3 2.074219 -3.871094 1.914062 -4.328125 C 1.855469 -4.464844 1.71875 -4.558594 1.570312 -4.558594 C 1.109375 -4.546875 0.414062 -3.757812 -0.046875 -2.277344 C -0.605469 -0.457031 -0.148438 0.207031 0.171875 0.433594 C 0.332031 0.5625 0.515625 0.617188 0.722656 0.617188 C 0.984375 0.617188 1.28125 0.515625 1.570312 0.308594 C 2.300781 -0.21875 3.023438 -0.996094 3.917969 -2.246094 C 3.984375 -2.347656 3.960938 -2.484375 3.871094 -2.554688 Z M 1.476562 -4.078125 C 1.429688 -3.894531 1.238281 -3.527344 0.699219 -2.976562 C 0.996094 -3.640625 1.316406 -3.960938 1.476562 -4.078125 Z M 1.476562 -4.078125 "/></g></g></g><g fill="#1c2120" fill-opacity="1"><g transform="translate(122.031802, 56.427475)"><g><path d="M 3.367188 -10.730469 C 3.285156 -10.832031 3.171875 -10.878906 3.058594 -10.867188 C 2.40625 -10.753906 1.707031 -8.3125 1.511719 -7.570312 C 0.9375 -5.382812 0.21875 -2.277344 -0.367188 0.503906 C -0.640625 1.820312 -0.859375 2.933594 -0.996094 3.734375 C -1.226562 5.085938 -1.191406 5.257812 -0.972656 5.3125 C -0.949219 5.324219 -0.925781 5.324219 -0.90625 5.324219 C -0.699219 5.324219 -0.59375 5.050781 -0.492188 4.753906 C -0.457031 4.636719 -0.515625 4.511719 -0.628906 4.476562 C -0.640625 4.464844 -0.652344 4.464844 -0.664062 4.464844 C -0.421875 2.816406 0.5625 -1.980469 1.570312 -6 C 1.570312 -6.011719 1.582031 -6.023438 1.59375 -6.035156 C 3.082031 -8.394531 3.664062 -10.273438 3.367188 -10.730469 Z M 1.957031 -7.546875 C 2.394531 -9.160156 2.78125 -9.941406 2.988281 -10.261719 C 2.941406 -9.835938 2.691406 -8.921875 1.957031 -7.546875 Z M 1.957031 -7.546875 "/></g></g></g><g fill="#1c2120" fill-opacity="1"><g transform="translate(123.77188, 56.427475)"><g><path d="M 4.144531 -2.484375 C 4.042969 -2.566406 3.90625 -2.542969 3.835938 -2.449219 C 3.355469 -1.832031 2.566406 -1.316406 1.957031 -1.429688 C 1.96875 -1.511719 1.980469 -1.59375 1.980469 -1.671875 C 2.0625 -2.964844 1.660156 -3.230469 1.421875 -3.273438 C 1.144531 -3.332031 0.859375 -3.125 0.722656 -2.78125 C 0.664062 -2.804688 0.59375 -2.804688 0.539062 -2.761719 C 0.0820312 -2.472656 -0.296875 -1.742188 -0.0898438 -0.949219 C 0.046875 -0.480469 0.367188 -0.183594 0.789062 -0.183594 C 1.191406 -0.183594 1.613281 -0.480469 1.832031 -1.007812 C 2.632812 -0.835938 3.597656 -1.429688 4.179688 -2.175781 C 4.261719 -2.277344 4.238281 -2.417969 4.144531 -2.484375 Z M 0.800781 -0.617188 C 0.789062 -0.617188 0.789062 -0.617188 0.789062 -0.617188 C 0.503906 -0.628906 0.378906 -0.90625 0.34375 -1.066406 C 0.230469 -1.453125 0.320312 -1.992188 0.640625 -2.289062 C 0.664062 -1.902344 0.882812 -1.476562 1.429688 -1.179688 C 1.269531 -0.8125 0.996094 -0.617188 0.800781 -0.617188 Z M 1.546875 -1.695312 C 1.535156 -1.671875 1.535156 -1.648438 1.535156 -1.625 C 1.097656 -1.914062 1.03125 -2.277344 1.109375 -2.566406 C 1.167969 -2.75 1.28125 -2.839844 1.339844 -2.839844 C 1.398438 -2.828125 1.59375 -2.609375 1.546875 -1.695312 Z M 1.546875 -1.695312 "/></g></g></g><g fill="#1c2120" fill-opacity="1"><g transform="translate(127.4352, 56.427475)"><g><path d="M 2.449219 -4.25 C 2.152344 -4.339844 1.375 -4.28125 0.5625 -1.914062 C 1.019531 -4.5 1.097656 -4.957031 1.089844 -5.039062 C 1.089844 -5.152344 0.984375 -5.257812 0.859375 -5.246094 C 0.746094 -5.234375 0.652344 -5.140625 0.652344 -5.027344 C 0.640625 -4.867188 0.355469 -3.320312 0.046875 -1.535156 C -0.0234375 -1.144531 -0.101562 -0.746094 -0.171875 -0.332031 C -0.332031 -0.273438 -0.492188 -0.21875 -0.652344 -0.171875 C -0.765625 -0.136719 -0.835938 -0.0234375 -0.800781 0.101562 C -0.765625 0.21875 -0.652344 0.285156 -0.539062 0.25 C -0.445312 0.230469 -0.355469 0.195312 -0.261719 0.171875 C -0.753906 2.964844 -1.316406 6.160156 -1.582031 7.914062 C -1.59375 8.027344 -1.511719 8.140625 -1.398438 8.152344 C -1.386719 8.152344 -1.375 8.164062 -1.363281 8.164062 C -1.257812 8.164062 -1.15625 8.085938 -1.144531 7.980469 C -0.859375 6.289062 -0.0703125 2.265625 0.527344 -0.171875 C 0.882812 -0.355469 1.214844 -0.5625 1.523438 -0.800781 C 2.015625 -1.203125 2.644531 -1.84375 2.863281 -2.679688 C 3.082031 -3.445312 2.898438 -4.113281 2.449219 -4.25 Z M 2.4375 -2.792969 C 2.222656 -1.980469 1.5 -1.257812 0.675781 -0.753906 C 0.777344 -1.144531 0.871094 -1.476562 0.949219 -1.71875 C 1.546875 -3.46875 2.097656 -3.824219 2.289062 -3.824219 C 2.300781 -3.824219 2.3125 -3.824219 2.324219 -3.824219 C 2.472656 -3.777344 2.601562 -3.378906 2.4375 -2.792969 Z M 2.4375 -2.792969 "/></g></g></g><g fill="#1c2120" fill-opacity="1"><g transform="translate(130.892455, 56.427475)"><g><path d="M 3.871094 -2.554688 C 3.769531 -2.621094 3.628906 -2.601562 3.5625 -2.496094 C 2.703125 -1.292969 2.003906 -0.539062 1.316406 -0.046875 C 0.972656 0.195312 0.640625 0.242188 0.421875 0.0820312 C 0.285156 -0.0234375 -0.136719 -0.480469 0.355469 -2.085938 C 1.464844 -3 2.074219 -3.871094 1.914062 -4.328125 C 1.855469 -4.464844 1.71875 -4.558594 1.570312 -4.558594 C 1.109375 -4.546875 0.414062 -3.757812 -0.046875 -2.277344 C -0.605469 -0.457031 -0.148438 0.207031 0.171875 0.433594 C 0.332031 0.5625 0.515625 0.617188 0.722656 0.617188 C 0.984375 0.617188 1.28125 0.515625 1.570312 0.308594 C 2.300781 -0.21875 3.023438 -0.996094 3.917969 -2.246094 C 3.984375 -2.347656 3.960938 -2.484375 3.871094 -2.554688 Z M 1.476562 -4.078125 C 1.429688 -3.894531 1.238281 -3.527344 0.699219 -2.976562 C 0.996094 -3.640625 1.316406 -3.960938 1.476562 -4.078125 Z M 1.476562 -4.078125 "/></g></g></g><g fill="#1c2120" fill-opacity="1"><g transform="translate(134.223785, 56.427475)"><g><path d="M 5.027344 -2.589844 C 4.914062 -2.644531 4.777344 -2.601562 4.730469 -2.484375 C 3.414062 0.285156 2.164062 1.707031 1.890625 1.660156 C 1.867188 1.648438 1.464844 1.257812 2.761719 -2.714844 C 2.792969 -2.816406 2.875 -3.058594 2.691406 -3.183594 C 2.519531 -3.320312 2.324219 -3.195312 2.003906 -2.976562 C 1.660156 -2.761719 1.191406 -2.449219 0.824219 -2.496094 C 1.992188 -4.511719 1.878906 -4.957031 1.613281 -5.128906 C 1.203125 -5.371094 0.605469 -4.671875 0.332031 -4.273438 C -0.230469 -3.402344 -0.21875 -2.609375 0.378906 -2.210938 C 0.984375 -1.785156 1.773438 -2.300781 2.246094 -2.609375 C 2.257812 -2.621094 2.257812 -2.621094 2.265625 -2.632812 C 1.820312 -1.226562 1.535156 -0.113281 1.429688 0.652344 C 1.304688 1.5 1.398438 1.945312 1.71875 2.074219 C 1.773438 2.085938 1.820312 2.097656 1.878906 2.097656 C 2.792969 2.097656 4.386719 -0.722656 5.128906 -2.289062 C 5.175781 -2.40625 5.128906 -2.542969 5.027344 -2.589844 Z M 0.402344 -3.378906 C 0.5625 -3.996094 1.097656 -4.570312 1.339844 -4.707031 C 1.316406 -4.523438 1.191406 -4.007812 0.457031 -2.738281 C 0.378906 -2.863281 0.320312 -3.058594 0.402344 -3.378906 Z M 0.402344 -3.378906 "/></g></g></g><path stroke-linecap="butt" transform="matrix(0.000000000000000046, -0.745141, 0.744485, 0.000000000000000046, 7.620893, 59.51548)" fill="none" stroke-linejoin="miter" d="M -0.000195236 0.000269528 L 70.943786 0.000269528 " stroke="#000000" stroke-width="1" stroke-opacity="1" stroke-miterlimit="4"/><path stroke-linecap="butt" transform="matrix(0.000000000000000046, -0.749745, 0.744485, 0.000000000000000046, 142.37245, 42.927674)" fill="none" stroke-linejoin="miter" d="M 0.00252472 -0.00182126 L 48.664909 -0.00182126 " stroke="#000000" stroke-width="1" stroke-opacity="1" stroke-miterlimit="4"/><path stroke-linecap="butt" transform="matrix(-0.747658, -0.000000000000000092, 0.000000000000000091, -0.744485, 68.043713, 59.146427)" fill="none" stroke-linejoin="miter" d="M 0.000994946 0.00254622 L 80.669544 0.00254622 " stroke="#000000" stroke-width="1" stroke-opacity="1" stroke-miterlimit="4"/></svg>